<?xml version="1.0" encoding="utf-8"?>
<!-- Generator: Adobe Illustrator 23.0.4, SVG Export Plug-In . SVG Version: 6.00 Build 0)  -->
<svg version="1.1" id="Layer_1" xmlns="http://www.w3.org/2000/svg" xmlns:xlink="http://www.w3.org/1999/xlink" x="0px" y="0px"
	 viewBox="0 0 1280 1024" style="enable-background:new 0 0 1280 1024;" xml:space="preserve">
<style type="text/css">
	.st0{fill:#333333;}
	.st1{fill:#FFFFFF;stroke:#666666;stroke-miterlimit:10;}
	.st2{fill:#E2987A;}
	.st3{fill:#FFFFFF;}
</style>
<rect x="-4.85" y="-6.08" class="st0" width="1283.9" height="1034.8"/>
<line class="st1" x1="-4.85" y1="-57.51" x2="679.09" y2="1082.14"/>
<line class="st1" x1="145.03" y1="-20.35" x2="778.99" y2="1036.01"/>
<line class="st1" x1="266.14" y1="-37.03" x2="910.67" y2="1036.97"/>
<line class="st1" x1="391.21" y1="-38.91" x2="1060.44" y2="1076.23"/>
<line class="st1" x1="652.82" y1="-31.9" x2="1298.3" y2="1043.66"/>
<line class="st1" x1="778.99" y1="-36.25" x2="1304.58" y2="839.55"/>
<line class="st1" x1="-78.85" y1="251.28" x2="393.19" y2="1037.84"/>
<line class="st1" x1="-141.64" y1="358.84" x2="317.22" y2="1123.44"/>
<line class="st1" x1="905.38" y1="-38.79" x2="1364.25" y2="725.81"/>
<line class="st1" x1="990.81" y1="-112.1" x2="1449.68" y2="652.51"/>
<line class="st1" x1="1295.96" y1="80.43" x2="721.42" y2="1046.97"/>
<line class="st1" x1="1438.94" y1="270.2" x2="917.28" y2="1147.79"/>
<line class="st1" x1="1224.7" y1="-19.73" x2="591.69" y2="1045.16"/>
<line class="st1" x1="1088.92" y1="-6.08" x2="469.05" y2="1036.72"/>
<line class="st1" x1="972.01" y1="-29.37" x2="333.63" y2="1044.55"/>
<line class="st1" x1="716.21" y1="-38.91" x2="63.22" y2="1059.6"/>
<line class="st1" x1="586.96" y1="-37.59" x2="-28.18" y2="997.25"/>
<line class="st1" x1="459.74" y1="-28.05" x2="-96.21" y2="907.21"/>
<line class="st1" x1="326.66" y1="-25.3" x2="-195" y2="852.28"/>
<line class="st1" x1="326.66" y1="-244" x2="-195" y2="633.58"/>
<line class="st1" x1="846.07" y1="-26.66" x2="197.89" y2="1063.76"/>
<line class="st1" x1="1451" y1="468.42" x2="929.34" y2="1346"/>
<line class="st1" x1="687.01" y1="667.54" x2="556.3" y2="668.47"/>
<line class="st1" x1="173.42" y1="667.54" x2="42.7" y2="668.47"/>
<line class="st1" x1="239.58" y1="774.13" x2="108.87" y2="775.05"/>
<line class="st1" x1="494.08" y1="774.13" x2="363.36" y2="775.05"/>
<ellipse class="st1" cx="236.02" cy="775.95" rx="22.68" ry="21.94"/>
<ellipse class="st2" cx="364.51" cy="775.95" rx="15.21" ry="14.71"/>
<line class="st1" x1="751.55" y1="558.08" x2="620.83" y2="559.01"/>
<ellipse class="st2" cx="751.54" cy="561.5" rx="15.21" ry="14.71"/>
<line class="st1" x1="489.95" y1="125.62" x2="366.08" y2="129.51"/>
<ellipse class="st3" cx="489.95" cy="125.62" rx="7.6" ry="7.35"/>
<ellipse class="st2" cx="367.23" cy="127.56" rx="22.68" ry="21.94"/>
<line class="st1" x1="1139.41" y1="563.24" x2="1008.69" y2="564.17"/>
<ellipse class="st2" cx="1011.05" cy="565.01" rx="15.21" ry="14.71"/>
<ellipse class="st2" cx="1139.04" cy="563.7" rx="7.6" ry="7.35"/>
<line class="st1" x1="236.34" y1="345.83" x2="105.63" y2="346.75"/>
<line class="st1" x1="816.89" y1="237.51" x2="686.18" y2="238.43"/>
<ellipse class="st2" cx="813.93" cy="236.56" rx="15.21" ry="14.71"/>
<line class="st1" x1="174.6" y1="451.84" x2="43.88" y2="452.77"/>
<ellipse class="st2" cx="46.24" cy="453.61" rx="15.21" ry="14.71"/>
<ellipse class="st2" cx="174.23" cy="452.3" rx="7.6" ry="7.35"/>
<line class="st1" x1="1066.49" y1="893.56" x2="949.11" y2="893.93"/>
<ellipse class="st3" cx="1068.29" cy="893.74" rx="7.6" ry="7.35"/>
<ellipse class="st2" cx="950.03" cy="892.25" rx="22.68" ry="21.94"/>
<ellipse class="st1" cx="686.18" cy="238.43" rx="15.21" ry="14.71"/>
<line class="st1" x1="944.65" y1="453.15" x2="813.93" y2="454.08"/>
<ellipse class="st1" cx="944.19" cy="453.61" rx="15.21" ry="14.71"/>
<line class="st1" x1="1268.32" y1="992.92" x2="1137.61" y2="993.85"/>
<line class="st1" x1="1009.55" y1="992.92" x2="878.83" y2="993.85"/>
<ellipse class="st2" cx="882.14" cy="993.61" rx="7.6" ry="7.35"/>
<line class="st1" x1="1133.65" y1="128.99" x2="1006.61" y2="129.89"/>
<ellipse class="st2" cx="1136.01" cy="129.46" rx="22.68" ry="21.94"/>
<line class="st1" x1="109.76" y1="127.11" x2="-17.27" y2="128.01"/>
<line class="st1" x1="1266.48" y1="345.84" x2="1139.45" y2="346.74"/>
<line class="st1" x1="1198.83" y1="21.84" x2="1071.8" y2="22.74"/>
<line class="st1" x1="680.22" y1="12.63" x2="553.19" y2="13.53"/>
<line class="st1" x1="109.76" y1="985.81" x2="-17.27" y2="986.71"/>
<ellipse class="st2" cx="106.82" cy="986.26" rx="15.21" ry="14.71"/>
<line class="st1" x1="301.55" y1="240.08" x2="170.83" y2="241.01"/>
<ellipse class="st3" cx="170.17" cy="237.97" rx="7.6" ry="7.35"/>
<line class="st1" x1="557.5" y1="448.5" x2="426.83" y2="449.01"/>
<ellipse class="st2" cx="560.04" cy="452.7" rx="7.6" ry="7.35"/>
</svg>
