<svg id="Layer_1" data-name="Layer 1" xmlns="http://www.w3.org/2000/svg" viewBox="0 0 831.62 830.22"><defs><style>.cls-1{fill:#333;}.cls-2,.cls-4{fill:#fff;}.cls-2{stroke:#666;stroke-miterlimit:10;}.cls-3{fill:#e2987a;}</style></defs><title>Modern-Free-Vector-Geometric</title><rect class="cls-1" x="96.4" y="124.41" width="648" height="540"/><line class="cls-2" x1="96.4" y1="97.57" x2="441.6" y2="692.28"/><line class="cls-2" x1="172.05" y1="116.96" x2="492.02" y2="668.21"/><line class="cls-2" x1="233.17" y1="108.26" x2="558.48" y2="668.71"/><line class="cls-2" x1="296.3" y1="107.27" x2="634.07" y2="689.2"/><line class="cls-2" x1="428.34" y1="110.93" x2="754.12" y2="672.2"/><line class="cls-2" x1="492.02" y1="108.66" x2="757.29" y2="565.69"/><line class="cls-2" x1="59.05" y1="258.71" x2="297.3" y2="669.16"/><line class="cls-2" x1="27.36" y1="314.84" x2="258.96" y2="713.84"/><line class="cls-2" x1="555.81" y1="107.34" x2="787.4" y2="506.34"/><line class="cls-2" x1="598.93" y1="69.08" x2="830.52" y2="468.08"/><line class="cls-2" x1="752.94" y1="169.55" x2="462.96" y2="673.93"/><line class="cls-2" x1="825.1" y1="268.58" x2="561.81" y2="726.54"/><line class="cls-2" x1="716.97" y1="117.28" x2="397.48" y2="672.99"/><line class="cls-2" x1="648.44" y1="124.41" x2="335.59" y2="668.58"/><line class="cls-2" x1="589.43" y1="112.25" x2="267.24" y2="672.67"/><line class="cls-2" x1="460.33" y1="107.28" x2="130.76" y2="680.52"/><line class="cls-2" x1="395.1" y1="107.96" x2="84.63" y2="647.98"/><line class="cls-2" x1="330.89" y1="112.94" x2="50.29" y2="601"/><line class="cls-2" x1="263.72" y1="114.38" x2="0.43" y2="572.33"/><line class="cls-2" x1="263.72" y1="0.25" x2="0.43" y2="458.21"/><line class="cls-2" x1="525.87" y1="113.66" x2="198.73" y2="682.69"/><line class="cls-2" x1="831.19" y1="372.02" x2="567.9" y2="829.97"/><line class="cls-2" x1="445.6" y1="475.93" x2="379.62" y2="476.41"/><line class="cls-2" x1="186.38" y1="475.93" x2="120.4" y2="476.41"/><line class="cls-2" x1="219.77" y1="531.55" x2="153.8" y2="532.03"/><line class="cls-2" x1="348.22" y1="531.55" x2="282.24" y2="532.03"/><circle class="cls-2" cx="217.97" cy="532.5" r="11.45"/><circle class="cls-3" cx="282.82" cy="532.5" r="7.68"/><line class="cls-2" x1="478.17" y1="418.81" x2="412.19" y2="419.29"/><circle class="cls-3" cx="478.16" cy="420.59" r="7.68"/><circle class="cls-3" cx="381.78" cy="364.29" r="7.68"/><line class="cls-2" x1="346.13" y1="193.13" x2="283.62" y2="195.16"/><circle class="cls-4" cx="346.13" cy="193.13" r="3.84"/><circle class="cls-3" cx="284.2" cy="194.15" r="11.45"/><line class="cls-2" x1="673.92" y1="421.5" x2="607.95" y2="421.98"/><circle class="cls-3" cx="609.14" cy="422.42" r="7.68"/><circle class="cls-3" cx="673.74" cy="421.74" r="3.84"/><circle class="cls-4" cx="184.74" cy="251.76" r="3.84"/><line class="cls-2" x1="218.14" y1="308.05" x2="152.16" y2="308.53"/><line class="cls-2" x1="511.15" y1="251.52" x2="445.17" y2="252"/><circle class="cls-3" cx="509.65" cy="251.02" r="7.68"/><line class="cls-2" x1="186.98" y1="363.37" x2="121" y2="363.85"/><circle class="cls-3" cx="122.19" cy="364.29" r="7.68"/><circle class="cls-3" cx="186.79" cy="363.61" r="3.84"/><line class="cls-2" x1="637.12" y1="593.87" x2="577.88" y2="594.07"/><circle class="cls-4" cx="638.03" cy="593.97" r="3.84"/><circle class="cls-3" cx="578.34" cy="593.19" r="11.45"/><circle class="cls-2" cx="445.17" cy="252" r="7.68"/><line class="cls-2" x1="575.63" y1="364.05" x2="509.65" y2="364.53"/><circle class="cls-2" cx="575.4" cy="364.29" r="7.68"/><line class="cls-2" x1="738.99" y1="645.72" x2="673.02" y2="646.21"/><line class="cls-2" x1="608.38" y1="645.72" x2="542.41" y2="646.21"/><circle class="cls-3" cx="544.08" cy="646.08" r="3.84"/><line class="cls-2" x1="671.02" y1="194.89" x2="606.9" y2="195.36"/><circle class="cls-3" cx="672.21" cy="195.13" r="11.45"/><line class="cls-2" x1="154.25" y1="193.91" x2="90.13" y2="194.38"/><line class="cls-2" x1="738.06" y1="308.05" x2="673.94" y2="308.52"/><line class="cls-2" x1="703.92" y1="138.98" x2="639.8" y2="139.45"/><line class="cls-2" x1="442.17" y1="134.17" x2="378.05" y2="134.64"/><line class="cls-2" x1="154.25" y1="642.01" x2="90.13" y2="642.48"/><circle class="cls-3" cx="152.77" cy="642.25" r="7.68"/></svg>